<svg width="180" height="75" fill="none" xmlns="http://www.w3.org/2000/svg"><g clip-path="url(#clip0_229_540)"><path d="M36.439 44.673l-7.361 7.391-17.412 5.329L0 69.106v4.075h36.439V53.313l-4.052 4.069v11.724H5.735l8.087-8.114 17.406-5.328 5.211-5.233v-5.758z" fill="#358E42"/><path d="M25.848 46.668L8.44 51.991l-4.39 4.402V4.204a16.744 16.744 0 017.146 2.572 16.825 16.825 0 015.286 5.469l1.734 2.865 1.756-2.865a16.83 16.83 0 015.276-5.464 16.75 16.75 0 017.132-2.577v33.022l4.058-4.074V0h-2.026a20.752 20.752 0 00-8.962 1.999 20.834 20.834 0 00-7.234 5.674 20.79 20.79 0 00-7.23-5.677A20.707 20.707 0 002.026 0H0v66.225L10.591 55.59l17.407-5.323 8.441-8.475v-5.758L25.848 46.668z" fill="#E24E25"/><path d="M53.525 5.69h-4.289v4.165H47.7V.322h1.536v4.006h4.289V.322h1.53v9.533h-1.53V5.69zM57.39.322h1.498V5.73l-.152 1.96h.067l.951-1.757L63.39.322h1.39v9.533h-1.497v-5.43l.152-1.967h-.045l-.974 1.746-3.613 5.65H57.42L57.39.323zm9.692 0h1.497V5.73l-.152 1.96h.039l.951-1.757L73.058.322h1.384v9.533h-1.496v-5.43l.151-1.967h-.039l-.951 1.746-3.641 5.65h-1.384V.323zM51.363 25.778c-.578.01-1.153-.1-1.688-.322a3.505 3.505 0 01-1.294-.938 4.43 4.43 0 01-.833-1.543 7.941 7.941 0 010-4.238 4.43 4.43 0 01.85-1.537c.354-.408.796-.73 1.294-.938a4.485 4.485 0 013.377 0c.486.211.917.532 1.26.938.38.452.663.977.833 1.543a7.941 7.941 0 010 4.238 4.351 4.351 0 01-.833 1.565c-.35.41-.792.73-1.288.938a4.205 4.205 0 01-1.678.294zm0-1.362c.344.002.684-.063 1.002-.192a2.18 2.18 0 00.771-.565c.223-.26.391-.561.495-.887.125-.38.186-.776.18-1.176v-1.491a3.632 3.632 0 00-.18-1.176 2.558 2.558 0 00-.495-.887 2.095 2.095 0 00-.77-.565 2.636 2.636 0 00-2.004 0c-.296.127-.557.32-.766.565-.222.26-.39.561-.495.887a3.63 3.63 0 00-.18 1.176v1.503c-.005.399.055.796.18 1.175.104.326.273.628.495.887.21.243.472.436.766.565a2.58 2.58 0 001.001.181zm6.005 1.198V16.1h4.069a2.632 2.632 0 012.037.78 3.4 3.4 0 010 4.17 2.654 2.654 0 01-2.037.774h-2.538v3.791h-1.53zm1.53-5.153h2.443c.332.02.658-.09.912-.305a1.132 1.132 0 00.326-.87v-.645a1.134 1.134 0 00-.326-.876 1.285 1.285 0 00-.912-.299H58.9v2.995zm6.979-4.363h5.335v1.368h-3.804v8.148h-1.53v-9.516zm11.661 9.516l-.856-2.577h-3.545l-.827 2.577h-1.56l3.248-9.516h1.924l3.23 9.516h-1.614zm-2.595-8.097h-.067l-1.373 4.204h2.814l-1.374-4.204zm11.487 3.955h-4.295v4.142h-1.53v-9.516h1.53v4.007h4.294v-4.007h1.531v9.516h-1.53v-4.142zm3.888-5.374h1.491v5.414l-.146 1.96h.04l.928-1.751 3.635-5.617h1.368v9.51h-1.492V20.2l.147-1.961h-.04l-.934 1.786-3.635 5.616h-1.362v-9.544zm12.341 9.68a4.393 4.393 0 01-1.947-.407 4.196 4.196 0 01-1.435-1.164l1.047-.966c.27.353.609.647.996.864.414.213.874.32 1.339.311a2.48 2.48 0 001.441-.356 1.243 1.243 0 00.501-1.085v-.124a1.255 1.255 0 00-.422-1.012 2.02 2.02 0 00-1.317-.356h-1.52v-1.39h1.441c.44.037.877-.088 1.233-.35a1.328 1.328 0 00.394-1.045v-.136a1.139 1.139 0 00-.411-.944 2.043 2.043 0 00-1.261-.322 2.768 2.768 0 00-1.266.277 2.5 2.5 0 00-.878.724l-1.041-.888a3.938 3.938 0 011.328-1.085 4.098 4.098 0 011.857-.39 3.794 3.794 0 012.454.701 2.312 2.312 0 01.85 1.87 2.018 2.018 0 01-.529 1.52 2.43 2.43 0 01-1.351.656v.068c.267.026.528.091.777.192.243.095.466.235.658.412.195.185.35.408.456.656.119.292.176.605.169.92a2.77 2.77 0 01-.242 1.17 2.56 2.56 0 01-.709.916 3.183 3.183 0 01-1.126.565c-.483.14-.983.206-1.486.198zm11.199-.164l-.855-2.577h-3.551l-.827 2.577h-1.559l3.23-9.516h1.925l3.236 9.516h-1.599zm-2.594-8.097h-.067l-1.368 4.204h2.814l-1.379-4.204zm12.82 8.097h-7.158v-9.516h1.53v8.154h4.086v-8.154h1.542v8.154h1.412v3.39h-1.412v-2.028zm2.982-9.516h1.52v5.414l-.146 1.96h.039l.923-1.751 3.635-5.617h1.385v9.51h-1.492V20.2l.147-1.961h-.04l-.951 1.786-3.635 5.616h-1.385v-9.544zm9.691 0h1.492v5.414l-.147 1.96h.051l.94-1.751 3.635-5.617h1.385v9.51h-1.492V20.2l.147-1.961h-.04l-.951 1.786-3.624 5.588h-1.384l-.012-9.516zM50.362 41.56a4.391 4.391 0 01-1.948-.413 4.094 4.094 0 01-1.429-1.13l1.041-.966c.27.355.612.65 1.002.864.412.212.87.317 1.334.306a2.48 2.48 0 001.44-.356 1.231 1.231 0 00.501-1.08v-.152a1.27 1.27 0 00-.416-1.012 2.02 2.02 0 00-1.317-.356h-1.525v-1.39h1.44a1.84 1.84 0 001.239-.35 1.333 1.333 0 00.394-1.045v-.142a1.134 1.134 0 00-.417-.938 2.025 2.025 0 00-1.255-.322 2.725 2.725 0 00-1.272.277c-.342.169-.64.414-.872.718l-1.035-.882c.36-.453.812-.823 1.328-1.085a4.107 4.107 0 011.862-.39 3.765 3.765 0 012.448.695 2.26 2.26 0 01.833 1.87 2.021 2.021 0 01-.523 1.498 2.427 2.427 0 01-1.334.633v.068a2.7 2.7 0 01.782.192c.244.095.467.235.659.413.195.185.35.408.456.655.119.292.176.606.169.921.003.403-.082.803-.248 1.17a2.529 2.529 0 01-.704.915 3.25 3.25 0 01-1.125.565 5.125 5.125 0 01-1.508.249zm4.502-1.531h1.002c.197-.248.364-.52.495-.808.165-.363.293-.742.382-1.13.114-.48.193-.967.237-1.458.06-.63.088-1.261.084-1.893v-2.848h6.19v8.137h1.413v3.39h-1.424v-2.023h-6.978v2.04h-1.401v-3.407zm6.843 0v-6.781h-3.185v1.695c0 .678 0 1.283-.062 1.814-.036.468-.096.934-.18 1.396-.063.358-.157.71-.282 1.05-.1.27-.23.528-.388.77v.05l4.097.006zm4.497 1.367v-9.504h4.068a2.63 2.63 0 012.038.768 3.4 3.4 0 010 4.17 2.655 2.655 0 01-2.038.775h-2.538v3.791h-1.53zm1.53-5.153h2.443c.331.02.658-.089.911-.305a1.13 1.13 0 00.327-.87v-.65a1.135 1.135 0 00-.327-.87 1.28 1.28 0 00-.911-.306h-2.443v3zm12.122 5.153l-.855-2.577h-3.54l-.827 2.577h-1.565l3.23-9.504h1.93l3.231 9.515-1.604-.01zM77.262 33.3h-.068l-1.367 4.198h2.814L77.26 33.3zm5.661-1.408h4.193a2.518 2.518 0 011.857.667 2.412 2.412 0 01.67 1.785c.006.31-.043.618-.147.91a1.915 1.915 0 01-.382.61 1.51 1.51 0 01-.53.356c-.18.074-.369.121-.562.142v.05c.216.011.429.057.63.136.24.084.46.216.647.39.21.19.38.421.501.678.144.319.213.667.203 1.017a3.21 3.21 0 01-.18 1.074 2.71 2.71 0 01-.512.876 2.363 2.363 0 01-.771.565 2.255 2.255 0 01-.98.214h-4.614l-.023-9.47zm1.537 4.023h2.375c.32.018.636-.087.883-.294a1.098 1.098 0 00.31-.842v-.435a1.094 1.094 0 00-.31-.836 1.235 1.235 0 00-.883-.294H84.46v2.701zm0 4.17h2.633c.34.019.675-.094.935-.316a1.164 1.164 0 00.337-.899v-.463a1.169 1.169 0 00-.337-.898 1.324 1.324 0 00-.935-.317H84.46v2.893zm11.075 1.475c-.58.01-1.154-.1-1.689-.322a3.44 3.44 0 01-1.277-.944 4.226 4.226 0 01-.827-1.537 7.818 7.818 0 010-4.238 4.21 4.21 0 01.827-1.542 3.49 3.49 0 011.289-.938 4.525 4.525 0 013.376 0c.495.21.936.53 1.289.938.367.455.638.98.8 1.542a7.818 7.818 0 010 4.238 4.402 4.402 0 01-.828 1.537c-.351.41-.792.734-1.289.944-.53.22-1.098.329-1.671.322zm0-1.367c.341.004.68-.061.996-.193.3-.124.565-.318.776-.565.222-.258.39-.557.496-.881.122-.38.181-.777.174-1.175v-1.492a3.606 3.606 0 00-.174-1.17 2.647 2.647 0 00-.496-.887 2.194 2.194 0 00-.776-.565 2.708 2.708 0 00-2.004 0c-.293.13-.554.323-.765.565-.223.26-.391.561-.495.887a3.61 3.61 0 00-.175 1.175v1.503c-.007.4.052.796.175 1.176.103.325.271.625.495.881.208.246.47.439.765.565a2.5 2.5 0 001.008.175zm9.663 1.367a4.247 4.247 0 01-1.689-.322 3.484 3.484 0 01-1.288-.944 4.317 4.317 0 01-.828-1.537 7.821 7.821 0 010-4.238 4.287 4.287 0 01.828-1.542 3.524 3.524 0 011.288-.938 4.526 4.526 0 013.377 0c.496.209.937.53 1.289.938.38.45.662.976.827 1.542a7.821 7.821 0 010 4.238 4.233 4.233 0 01-.827 1.537c-.35.412-.792.735-1.289.944a4.228 4.228 0 01-1.688.322zm0-1.367c.341.005.68-.06.996-.193a2.06 2.06 0 00.776-.565 2.46 2.46 0 00.495-.881 3.61 3.61 0 00.175-1.175v-1.492a3.606 3.606 0 00-.175-1.176 2.548 2.548 0 00-.495-.887 2.194 2.194 0 00-.776-.565 2.692 2.692 0 00-1.998 0 2.265 2.265 0 00-.771.565 2.638 2.638 0 00-.495.887c-.123.38-.182.777-.175 1.176v1.503c-.007.399.052.796.175 1.175.105.324.273.624.495.882.21.245.474.439.771.565.318.129.659.19 1.002.18zm12.937 1.203h-1.806l-2.296-3.791h-.039l-2.252 3.791h-1.688l3.067-4.87-2.982-4.634h1.806l2.155 3.543h.029l2.189-3.543h1.688l-2.988 4.633 3.117 4.871zm1.447 0v-9.504h4.069a2.627 2.627 0 012.037.78 3.398 3.398 0 010 4.17 2.658 2.658 0 01-2.037.774h-2.538v3.791l-1.531-.011zm1.531-5.153h2.448c.329.02.654-.09.906-.306a1.136 1.136 0 00.326-.87v-.65a1.142 1.142 0 00-.326-.87 1.277 1.277 0 00-.906-.305h-2.448v3zm12.127 5.153l-.855-2.577h-3.54l-.822 2.577h-1.564l3.253-9.504h1.93l3.23 9.515-1.632-.01zm-2.589-8.097h-.073l-1.367 4.198h2.813l-1.373-4.198zm11.481 3.95h-4.289v4.147h-1.536v-9.504h1.536v4.006h4.289v-4.006h1.536v9.504h-1.536V37.25zm3.866 4.147v-9.504h6.066v1.362h-4.53v2.644h4.125v1.362h-4.114v2.769h4.531v1.367h-6.078zm13.872-4.147h-4.271v4.147h-1.531v-9.504h1.531v4.006h4.288v-4.006h1.536v9.504h-1.536l-.017-4.147zm3.872-5.357h1.491v5.413l-.152 1.933h.045l.951-1.758 3.636-5.588h1.384v9.504h-1.491v-5.413l.146-1.96h-.039l-.951 1.756-3.636 5.617h-1.384v-9.504zm9.077 8.137h.827l1.008-1.825c.096-.197.224-.376.377-.532.162-.134.356-.224.563-.26v-.067a2.436 2.436 0 01-1.801-.769 2.75 2.75 0 01-.619-1.859 2.899 2.899 0 01.726-2.09 2.66 2.66 0 012.014-.735H180v9.504h-1.531v-3.854h-1.727l-1.599 2.86a2.221 2.221 0 01-.641.774 1.41 1.41 0 01-.76.198h-.923v-1.345zm5.628-3.775v-3.012h-2.431c-.334-.02-.662.09-.918.306a1.133 1.133 0 00-.332.875v.65a1.128 1.128 0 00.332.876c.256.216.584.325.918.305h2.431zM47.7 47.663h1.497v5.407l-.152 1.967h.04l.95-1.758 3.636-5.616h1.384v9.51h-1.491v-5.408l.152-1.96h-.045l-.946 1.757-3.64 5.61H47.7v-9.51zm20.141 2.232h-.067l-.743 1.542-2.077 3.803-2.076-3.803-.749-1.542h-.067v7.277h-1.464v-9.51h1.818l2.538 4.837h.079l2.538-4.836h1.739v9.51h-1.469v-7.278zm3.804 7.277v-9.51h6.067v1.362h-4.536v2.645h4.114v1.362h-4.114v2.78h4.536v1.361h-6.067zm7.058-1.362h1.007c.194-.25.36-.52.495-.807.164-.363.29-.742.377-1.13.117-.48.196-.967.237-1.458.06-.628.088-1.258.084-1.888V47.64h6.19v8.148h1.413v3.39h-1.424v-2.045h-6.956v2.045h-1.423v-3.367zm6.843 0v-6.78h-3.163v1.695c0 .684 0 1.288-.062 1.814-.032.47-.093.938-.18 1.401a5.902 5.902 0 01-.281 1.046c-.099.27-.229.528-.389.768v.057h4.075zm4.519-8.147h1.491v5.407l-.146 1.967h.034l.95-1.758 3.636-5.616h1.384v9.51h-1.468v-5.408l.146-1.96h-.04l-.95 1.757-3.659 5.61H90.06l.006-9.51zm16.832 9.509h-7.141v-9.51h1.53v8.149h4.086v-8.148h1.536v8.148h1.419v3.39h-1.424l-.006-2.029zm2.999-9.509h1.492v5.407l-.152 1.967h.045l.945-1.758 3.641-5.616h1.385v9.51h-1.492v-5.408l.147-1.96h-.04l-.951 1.757-3.635 5.61h-1.385v-9.51zm15.51 5.367h-4.288v4.142h-1.536v-9.51h1.531v4.007h4.288v-4.006h1.536v9.51h-1.536l.005-4.142zm7.429 4.29a3.592 3.592 0 01-2.921-1.26c-.702-.837-1.054-2.056-1.058-3.657a7.43 7.43 0 01.27-2.113 4.322 4.322 0 01.788-1.543 3.23 3.23 0 011.255-.943 4.132 4.132 0 011.688-.322 3.773 3.773 0 012.071.536 3.634 3.634 0 011.306 1.605l-1.289.707a2.36 2.36 0 00-.754-1.085 2.1 2.1 0 00-1.334-.402 2.127 2.127 0 00-1.727.752 3.166 3.166 0 00-.625 2.08v1.452a3.16 3.16 0 00.625 2.079 2.386 2.386 0 003.117.31c.359-.3.632-.69.794-1.13l1.232.752a3.845 3.845 0 01-1.328 1.616c-.63.4-1.366.597-2.11.565zm5.048-9.657h1.536v4.006h1.638l1.688-2.961a2.32 2.32 0 01.659-.797c.252-.164.549-.247.849-.237h.721v1.362h-.856l-1.356 2.395a2.682 2.682 0 01-.428.566 1.383 1.383 0 01-.484.27v.069c.202.037.394.116.563.231.201.163.364.367.478.6l1.503 2.65h.827v1.361h-.934a1.33 1.33 0 01-.771-.22 2.364 2.364 0 01-.653-.803l-1.795-3.13h-1.638v4.153h-1.536l-.011-9.515zm12.403 9.657a4.3 4.3 0 01-1.688-.317 3.527 3.527 0 01-1.295-.944 4.415 4.415 0 01-.827-1.537 7.94 7.94 0 010-4.238c.169-.565.451-1.09.827-1.542.353-.41.796-.732 1.295-.938a4.483 4.483 0 013.376 0c.498.205.94.526 1.289.938.38.45.664.976.833 1.542a7.94 7.94 0 010 4.238 4.322 4.322 0 01-.833 1.537c-.35.411-.792.735-1.289.944a4.306 4.306 0 01-1.688.316zm0-1.362c.343.005.684-.06 1.002-.193.298-.124.562-.318.771-.565a2.58 2.58 0 00.495-.881c.124-.38.185-.776.18-1.175v-1.475a3.635 3.635 0 00-.18-1.176 2.58 2.58 0 00-.495-.881 2.118 2.118 0 00-.771-.565 2.71 2.71 0 00-2.004 0c-.295.127-.557.32-.765.565-.222.258-.39.558-.495.881-.124.38-.185.777-.18 1.176v1.508c-.005.4.056.797.18 1.176.105.324.273.623.495.881.207.247.469.44.765.565.319.127.66.187 1.002.175v-.016zm6.005-8.295h5.329v1.361h-3.77v8.148h-1.531l-.028-9.51zm10.107 9.657a4.344 4.344 0 01-1.688-.317 3.55 3.55 0 01-1.289-.944 4.398 4.398 0 01-.827-1.537 7.802 7.802 0 010-4.238c.169-.565.45-1.09.827-1.542.351-.409.793-.73 1.289-.938a4.523 4.523 0 013.376 0c.498.205.94.526 1.289.938.381.45.662.976.827 1.542a7.802 7.802 0 010 4.238 4.233 4.233 0 01-.827 1.537c-.35.412-.792.735-1.289.944a4.306 4.306 0 01-1.688.316zm0-1.362c.343.005.684-.06 1.002-.192.298-.125.562-.319.771-.566a2.58 2.58 0 00.495-.881c.124-.38.185-.776.18-1.175v-1.475a3.635 3.635 0 00-.18-1.175 2.58 2.58 0 00-.495-.882 2.118 2.118 0 00-.771-.565 2.516 2.516 0 00-1.002-.192 2.477 2.477 0 00-1.002.192c-.295.127-.557.32-.765.565a2.48 2.48 0 00-.495.881c-.124.38-.185.777-.18 1.176v1.509c-.005.399.055.796.18 1.175.103.325.271.625.495.881.207.247.469.44.765.565.319.127.66.187 1.002.176v-.017zm-111.45 9.719h-.084l-.743 1.542-2.07 3.803-2.083-3.803-.732-1.542h-.067v7.277H47.7v-9.51h1.818l2.532 4.837h.079l2.538-4.836h1.739v9.51h-1.469l.011-7.278zm3.804 7.277v-9.51h6.067v1.362h-4.536v2.645h4.114v1.362h-4.114v2.78h4.536v1.361h-6.067zm13.867-4.141h-4.288v4.141H66.8v-9.51h1.53v4.007h4.289v-4.006h1.536v9.51H72.62v-4.142zm3.872 4.141v-9.51h6.067v1.362h-4.536v2.645h4.113v1.362h-4.113v2.78h4.536v1.361H76.49zm7.074-1.361h1.007c.195-.252.361-.525.495-.814.163-.353.29-.723.377-1.102.116-.479.195-.966.237-1.458.06-.627.088-1.257.084-1.887v-2.887h6.19v8.148h1.413v3.39h-1.424v-2.046h-6.972v2.046h-1.407v-3.39zm6.843 0v-6.781h-3.163v1.695c0 .684 0 1.288-.062 1.814a11.95 11.95 0 01-.18 1.396 5.77 5.77 0 01-.281 1.05c-.1.271-.23.529-.388.77v.056h4.074zm3.906 0h.838l1.289-2.56c.109-.24.262-.46.45-.644.16-.14.354-.234.563-.271v-.063a1.551 1.551 0 01-.512-.294 1.695 1.695 0 01-.422-.593l-1.137-2.362h-.844v-1.361h.748c.307-.012.611.068.872.231.282.203.503.481.636.803l1.396 2.972h1.491v-4.006h1.537v4.006h1.491l1.401-2.972a1.83 1.83 0 01.63-.803c.262-.163.566-.243.873-.232h.748v1.362h-.85l-1.097 2.357a1.735 1.735 0 01-.422.593c-.15.13-.324.23-.512.294v.068c.208.037.403.13.563.27.188.186.341.404.45.645l1.289 2.56h.855v1.361h-.951a1.257 1.257 0 01-.777-.226 2.391 2.391 0 01-.619-.836l-1.547-3.09h-1.509v4.152h-1.536v-4.153h-1.502l-1.548 3.091a2.377 2.377 0 01-.62.836c-.226.16-.5.239-.776.226h-.94v-1.361zm21.295-5.916h-.068l-.748 1.542-2.077 3.803-2.077-3.803-.743-1.542h-.067v7.277h-1.469v-9.51h1.818l2.538 4.837h.112l2.539-4.836h1.738v9.51h-1.468l-.028-7.278zm3.798 7.277v-9.51h6.072v1.362h-4.535v2.645h4.113v1.362h-4.113v2.78h4.535v1.361h-6.072zm13.872-4.141h-4.288v4.141h-1.531v-9.51h1.531v4.007h4.288v-4.006h1.537v9.51h-1.537v-4.142zm7.384-4.007v8.148h-1.531v-8.148h-2.814v-1.361h7.181v1.361h-2.836zm9.353 8.148l-.855-2.576h-3.54l-.827 2.576h-1.576l3.23-9.51h1.93l3.231 9.51h-1.593zm-2.589-8.097h-.073l-1.367 4.199h2.813l-1.373-4.199z" fill="#27292E"/></g><defs><clipPath id="clip0_229_540"><path fill="#fff" d="M0 0h180v75H0z"/></clipPath></defs></svg>